# xmcd
#
# Track frame offsets:
#	150
#	4527
#	23804
#	40515
#	56425
#	77323
#	93765
#	108298
#	125518
#	142773
#	161395
#	180754
#	199189
#	217072
#	235468
#	254320
#	273552
#
# Disc length: 3880 seconds
#
# Revision: 0
# Processed by: cddbd v1.5.2PL0 Copyright (c) Steve Scherf et al.
# Submitted via: EasyCDDAExtractor 12.0.1.1
#
DISCID=cc0f2611
DTITLE=La Fouine - Aller retour
DYEAR=2007
DGENRE=
TTITLE0=Intro
TTITLE1=Qui peut me Stopper ?
TTITLE2=Reste en Chien (feat. Booba)
TTITLE3=Drôle de Parcours
TTITLE4=Tombé pour Elle (feat. Amel Bent)
TTITLE5=La Danse du Ghetto
TTITLE6=C'est pas la Peine
TTITLE7=Ma Tabatière (Chronique d'un dealer)
TTITLE8=Contrôle Abusif
TTITLE9=Laissez-moi Dénoncer
TTITLE10=Banlieue Sale (feat. Gued'1 and Kennedy)
TTITLE11=On s'en Bat les C******s
TTITLE12=Le Cœur du Problème
TTITLE13=Je Regarde Là-Haut
TTITLE14=Ma Life
TTITLE15=Partout Pareil
TTITLE16=Quel est mon Rôle (Outro)
EXTD=
EXTT0=
EXTT1=
EXTT2=
EXTT3=
EXTT4=
EXTT5=
EXTT6=
EXTT7=
EXTT8=
EXTT9=
EXTT10=
EXTT11=
EXTT12=
EXTT13=
EXTT14=
EXTT15=
EXTT16=
PLAYORDER=
